<?xml version="1.0" encoding="UTF-8" standalone="no"?>
<!-- Created with Inkscape (http://www.inkscape.org/) -->

<svg
   xmlns:dc="http://purl.org/dc/elements/1.1/"
   xmlns:cc="http://creativecommons.org/ns#"
   xmlns:rdf="http://www.w3.org/1999/02/22-rdf-syntax-ns#"
   xmlns:svg="http://www.w3.org/2000/svg"
   xmlns="http://www.w3.org/2000/svg"
   xmlns:sodipodi="http://sodipodi.sourceforge.net/DTD/sodipodi-0.dtd"
   xmlns:inkscape="http://www.inkscape.org/namespaces/inkscape"
   width="180"
   height="85.5"
   id="svg2"
   version="1.1"
   inkscape:version="0.48.4 r9939"
   sodipodi:docname="memsBot.svg">
  <sodipodi:namedview
     id="base"
     pagecolor="#ffffff"
     bordercolor="#666666"
     borderopacity="1.0"
     inkscape:pageopacity="0.0"
     inkscape:pageshadow="2"
     inkscape:zoom="6.4694275"
     inkscape:cx="152.61844"
     inkscape:cy="44.386992"
     inkscape:document-units="in"
     inkscape:current-layer="layer1"
     showgrid="false"
     units="in"
     inkscape:window-width="1364"
     inkscape:window-height="751"
     inkscape:window-x="0"
     inkscape:window-y="15"
     inkscape:window-maximized="0"
     showguides="true"
     inkscape:guide-bbox="true" />
  <defs
     id="defs4">
    <marker
       inkscape:stockid="Arrow1Send"
       orient="auto"
       refY="0"
       refX="0"
       id="Arrow1Send"
       style="overflow:visible">
      <path
         id="path4021"
         d="M 0,0 5,-5 -12.5,0 5,5 0,0 z"
         style="fill-rule:evenodd;stroke:#000000;stroke-width:1pt"
         transform="matrix(-0.2,0,0,-0.2,-1.2,0)"
         inkscape:connector-curvature="0" />
    </marker>
    <marker
       style="overflow:visible"
       id="DiamondSstart"
       refX="0"
       refY="0"
       orient="auto"
       inkscape:stockid="DiamondSstart">
      <path
         transform="matrix(0.2,0,0,0.2,1.2,0)"
         style="fill-rule:evenodd;stroke:#000000;stroke-width:1pt"
         d="M 0,-7.0710768 -7.0710894,0 0,7.0710589 7.0710462,0 0,-7.0710768 z"
         id="path4100"
         inkscape:connector-curvature="0" />
    </marker>
    <marker
       style="overflow:visible"
       id="DiamondMstart"
       refX="0"
       refY="0"
       orient="auto"
       inkscape:stockid="DiamondMstart">
      <path
         transform="matrix(0.4,0,0,0.4,2.6,0)"
         style="fill-rule:evenodd;stroke:#000000;stroke-width:1pt"
         d="M 0,-7.0710768 -7.0710894,0 0,7.0710589 7.0710462,0 0,-7.0710768 z"
         id="path4097"
         inkscape:connector-curvature="0" />
    </marker>
    <marker
       style="overflow:visible"
       id="SquareM"
       refX="0"
       refY="0"
       orient="auto"
       inkscape:stockid="SquareM">
      <path
         transform="scale(0.4,0.4)"
         style="fill-rule:evenodd;stroke:#000000;stroke-width:1pt"
         d="M -5,-5 -5,5 5,5 5,-5 -5,-5 z"
         id="path4079"
         inkscape:connector-curvature="0" />
    </marker>
    <inkscape:perspective
       id="perspective3828"
       inkscape:persp3d-origin="90 : 45 : 1"
       inkscape:vp_z="180 : 67.5 : 1"
       inkscape:vp_y="0 : 1000 : 0"
       inkscape:vp_x="0 : 67.5 : 1"
       sodipodi:type="inkscape:persp3d" />
    <marker
       inkscape:stockid="Arrow1Send2"
       orient="auto"
       refY="0"
       refX="0"
       id="Arrow1Send2"
       style="overflow:visible">
      <path
         id="path6038"
         d="M 0,0 5,-5 -12.5,0 5,5 0,0 z"
         style="fill:#00ff00;fill-rule:evenodd;stroke:#00ff00;stroke-width:1pt"
         transform="matrix(-0.2,0,0,-0.2,-1.2,0)"
         inkscape:connector-curvature="0" />
    </marker>
    <marker
       inkscape:stockid="Arrow1SendP"
       orient="auto"
       refY="0"
       refX="0"
       id="Arrow1SendP"
       style="overflow:visible">
      <path
         id="path6041"
         d="M 0,0 5,-5 -12.5,0 5,5 0,0 z"
         style="fill:#0000ff;fill-rule:evenodd;stroke:#0000ff;stroke-width:1pt"
         transform="matrix(-0.2,0,0,-0.2,-1.2,0)"
         inkscape:connector-curvature="0" />
    </marker>
    <marker
       inkscape:stockid="Arrow1SendM"
       orient="auto"
       refY="0"
       refX="0"
       id="Arrow1SendM"
       style="overflow:visible">
      <path
         id="path6044"
         d="M 0,0 5,-5 -12.5,0 5,5 0,0 z"
         style="fill:#ff0000;fill-rule:evenodd;stroke:#ff0000;stroke-width:1pt"
         transform="matrix(-0.2,0,0,-0.2,-1.2,0)"
         inkscape:connector-curvature="0" />
    </marker>
    <marker
       inkscape:stockid="Arrow1Send2"
       orient="auto"
       refY="0"
       refX="0"
       id="Arrow1Send2-9"
       style="overflow:visible">
      <path
         inkscape:connector-curvature="0"
         id="path6038-0"
         d="M 0,0 5,-5 -12.5,0 5,5 0,0 z"
         style="fill:#00ff00;fill-rule:evenodd;stroke:#00ff00;stroke-width:1pt"
         transform="matrix(-0.2,0,0,-0.2,-1.2,0)" />
    </marker>
    <marker
       inkscape:stockid="Arrow1SendM"
       orient="auto"
       refY="0"
       refX="0"
       id="Arrow1SendM-5"
       style="overflow:visible">
      <path
         inkscape:connector-curvature="0"
         id="path6044-5"
         d="M 0,0 5,-5 -12.5,0 5,5 0,0 z"
         style="fill:#ff0000;fill-rule:evenodd;stroke:#ff0000;stroke-width:1pt"
         transform="matrix(-0.2,0,0,-0.2,-1.2,0)" />
    </marker>
    <marker
       inkscape:stockid="Arrow1SendP"
       orient="auto"
       refY="0"
       refX="0"
       id="Arrow1SendP-0"
       style="overflow:visible">
      <path
         inkscape:connector-curvature="0"
         id="path6041-2"
         d="M 0,0 5,-5 -12.5,0 5,5 0,0 z"
         style="fill:#0000ff;fill-rule:evenodd;stroke:#0000ff;stroke-width:1pt"
         transform="matrix(-0.2,0,0,-0.2,-1.2,0)" />
    </marker>
    <marker
       inkscape:stockid="Arrow1Send2"
       orient="auto"
       refY="0"
       refX="0"
       id="Arrow1Send2-8"
       style="overflow:visible">
      <path
         inkscape:connector-curvature="0"
         id="path6038-5"
         d="M 0,0 5,-5 -12.5,0 5,5 0,0 z"
         style="fill:#00ff00;fill-rule:evenodd;stroke:#00ff00;stroke-width:1pt"
         transform="matrix(-0.2,0,0,-0.2,-1.2,0)" />
    </marker>
    <marker
       inkscape:stockid="Arrow1SendM"
       orient="auto"
       refY="0"
       refX="0"
       id="Arrow1SendM-6"
       style="overflow:visible">
      <path
         inkscape:connector-curvature="0"
         id="path6044-2"
         d="M 0,0 5,-5 -12.5,0 5,5 0,0 z"
         style="fill:#ff0000;fill-rule:evenodd;stroke:#ff0000;stroke-width:1pt"
         transform="matrix(-0.2,0,0,-0.2,-1.2,0)" />
    </marker>
    <marker
       inkscape:stockid="Arrow1SendP"
       orient="auto"
       refY="0"
       refX="0"
       id="Arrow1SendP-3"
       style="overflow:visible">
      <path
         inkscape:connector-curvature="0"
         id="path6041-29"
         d="M 0,0 5,-5 -12.5,0 5,5 0,0 z"
         style="fill:#0000ff;fill-rule:evenodd;stroke:#0000ff;stroke-width:1pt"
         transform="matrix(-0.2,0,0,-0.2,-1.2,0)" />
    </marker>
  </defs>
  <metadata
     id="metadata7">
    <rdf:RDF>
      <cc:Work
         rdf:about="">
        <dc:format>image/svg+xml</dc:format>
        <dc:type
           rdf:resource="http://purl.org/dc/dcmitype/StillImage" />
        <dc:title></dc:title>
      </cc:Work>
    </rdf:RDF>
  </metadata>
  <g
     transform="translate(0,-966.8598)"
     id="layer1"
     inkscape:groupmode="layer"
     inkscape:label="Layer 1">
    <path
       sodipodi:nodetypes="csssc"
       inkscape:connector-curvature="0"
       id="path2987"
       d="m 10.334555,971.07174 c 38.890874,9.09138 42.426408,-0.36 45.456865,7.72122 3.030458,8.08122 0.505077,19.44544 -3.030457,19.44544 -3.535534,0 -44.4467124,-5.55584 -46.2144794,-7.32361 -1.767767,-1.76777 -5.2012109,-22.02992 3.7880714,-19.84305 z"
       style="fill:none;stroke:#000000;stroke-width:1px;stroke-linecap:butt;stroke-linejoin:miter;stroke-opacity:1" />
    <path
       sodipodi:open="true"
       sodipodi:end="10.378134"
       sodipodi:start="5.7533972"
       transform="translate(-14.86265,935.79956)"
       d="M 40.568078,45.321938 A 6.1871843,5.0507627 0 1 1 31.646999,43.756139"
       sodipodi:ry="5.0507627"
       sodipodi:rx="6.1871843"
       sodipodi:cy="47.874344"
       sodipodi:cx="35.229069"
       id="path2991"
       style="fill:#21d9d5;fill-opacity:1;stroke:#000000;stroke-width:1.79999995;stroke-linejoin:round;stroke-miterlimit:4;stroke-opacity:0.21722843;stroke-dasharray:none;stroke-dashoffset:0"
       sodipodi:type="arc" />
    <path
       sodipodi:open="true"
       sodipodi:end="10.194227"
       sodipodi:start="5.3950116"
       transform="translate(-22.74794,932.68639)"
       d="m 65.788481,48.05255 c 2.48906,1.847658 2.866369,5.187804 0.842743,7.460424 -2.023627,2.27262 -5.681881,2.617119 -8.170941,0.76946 -2.48906,-1.847658 -2.866369,-5.187804 -0.842743,-7.460424 0.106064,-0.119114 0.217742,-0.233967 0.334719,-0.344234"
       sodipodi:ry="5.3033009"
       sodipodi:rx="5.8083773"
       sodipodi:cy="52.167492"
       sodipodi:cx="62.124382"
       id="path2993"
       style="fill:#21d9d5;fill-opacity:1;stroke:#000000;stroke-width:1.79999995;stroke-linejoin:round;stroke-miterlimit:4;stroke-opacity:0.21722843;stroke-dasharray:none;stroke-dashoffset:0"
       sodipodi:type="arc" />
    <path
       transform="matrix(0,1.0010239,-0.96652483,0,108.83454,936.92378)"
       d="m 79.54951,83.229683 c 0,4.044716 -3.222358,7.323606 -7.197337,7.323606 -3.974979,0 -7.197337,-3.27889 -7.197337,-7.323606 0,-4.044716 3.222358,-7.323606 7.197337,-7.323606 3.974979,0 7.197337,3.27889 7.197337,7.323606 z"
       sodipodi:ry="7.323606"
       sodipodi:rx="7.1973367"
       sodipodi:cy="83.229683"
       sodipodi:cx="72.352173"
       id="path3771"
       style="fill:none;stroke:#000000;stroke-width:0.89999998;stroke-linejoin:round;stroke-miterlimit:4;stroke-opacity:1;stroke-dasharray:none;stroke-dashoffset:0"
       sodipodi:type="arc" />
    <path
       transform="translate(-26.536012,935.21177)"
       d="m 77.024133,83.861031 c 0,1.882885 -1.695977,3.409264 -3.788072,3.409264 -2.092094,0 -3.788072,-1.526379 -3.788072,-3.409264 0,-1.882885 1.695978,-3.409265 3.788072,-3.409265 2.092095,0 3.788072,1.52638 3.788072,3.409265 z"
       sodipodi:ry="3.4092648"
       sodipodi:rx="3.7880721"
       sodipodi:cy="83.861031"
       sodipodi:cx="73.236061"
       id="path3773"
       style="fill:none;stroke:#000000;stroke-width:0.89999998;stroke-linejoin:round;stroke-miterlimit:4;stroke-opacity:1;stroke-dasharray:none;stroke-dashoffset:0"
       sodipodi:type="arc" />
    <path
       inkscape:connector-curvature="0"
       id="path3779"
       d="m 46.340046,1015.728 c -11.896158,-9.72 -12.476458,-11.1708 -12.476458,-11.1708"
       style="fill:none;stroke:#000000;stroke-width:1px;stroke-linecap:butt;stroke-linejoin:miter;stroke-opacity:1" />
    <path
       inkscape:connector-curvature="0"
       id="path3781"
       d="m 43.728694,1021.0958 c 0,0 -16.248411,-2.3212 -15.523035,-4.7875"
       style="fill:none;stroke:#000000;stroke-width:1px;stroke-linecap:butt;stroke-linejoin:miter;stroke-opacity:1" />
    <path
       inkscape:connector-curvature="0"
       id="path3783"
       d="m 25.594307,994.98227 c 0,0 -7.253755,14.36243 -7.39883,33.80263"
       style="fill:none;stroke:#000000;stroke-width:1px;stroke-linecap:butt;stroke-linejoin:miter;stroke-opacity:1" />
    <path
       sodipodi:nodetypes="csc"
       inkscape:connector-curvature="0"
       id="path3785"
       d="m 34.298813,996.28795 c 0,0 1.740901,5.51285 1.015526,8.55945 -0.725376,3.0466 -0.290151,1.7409 -0.290151,1.7409"
       style="fill:none;stroke:#000000;stroke-width:1px;stroke-linecap:butt;stroke-linejoin:miter;stroke-opacity:1" />
    <path
       inkscape:connector-curvature="0"
       id="path3787"
       d="m 31.977611,1018.9197 c 0,0 -7.834055,13.2019 -13.491984,9.2849"
       style="fill:none;stroke:#000000;stroke-width:1px;stroke-linecap:butt;stroke-linejoin:miter;stroke-opacity:1" />
    <path
       inkscape:connector-curvature="0"
       id="path3789"
       d="m 58.750774,1010.2537 c -0.164722,-0.5751 0.519051,-4.3212 1.320132,-6.1246 0.80108,-1.8033 3.919176,-0.7566 4.354671,0 0.435494,0.7537 -3.112194,7.6627 -5.674803,6.1275 z"
       style="fill:none;stroke:#000000;stroke-width:1px;stroke-linecap:butt;stroke-linejoin:miter;stroke-opacity:1" />
    <path
       inkscape:connector-curvature="0"
       id="path3791"
       d="m 48.371098,1015.728 c 0,0 6.963604,-3.6268 10.590482,-7.3988"
       style="fill:none;stroke:#000000;stroke-width:1px;stroke-linecap:butt;stroke-linejoin:miter;stroke-opacity:1" />
    <path
       inkscape:connector-curvature="0"
       id="path3793"
       d="m 61.863082,1009.0546 c 0,0 -8.414356,10.4454 -11.025708,10.5904"
       style="fill:none;stroke:#000000;stroke-width:1px;stroke-linecap:butt;stroke-linejoin:miter;stroke-opacity:1" />
    <rect
       y="987.9231"
       x="115.50735"
       height="27.082067"
       width="50.881458"
       id="rect3814"
       style="fill:#000000;fill-opacity:1;stroke:#000000;stroke-width:1.79999995;stroke-linejoin:round;stroke-miterlimit:4;stroke-opacity:0.46902651;stroke-dasharray:none;stroke-dashoffset:0" />
    <rect
       ry="0"
       y="983.40942"
       x="109.76266"
       height="35.699089"
       width="61.960613"
       id="rect3818"
       style="fill:#000000;fill-opacity:0;stroke:#000000;stroke-width:1.79999995;stroke-linejoin:round;stroke-miterlimit:4;stroke-opacity:1;stroke-dasharray:none;stroke-dashoffset:0" />
    <path
       sodipodi:nodetypes="ccccc"
       inkscape:connector-curvature="0"
       id="path3820"
       d="m 111.49602,1034.7695 58.27927,0 -11.30584,-9.1421 -34.8592,0.084 z"
       style="fill:none;stroke:#000000;stroke-width:0.99;stroke-linecap:butt;stroke-linejoin:miter;stroke-opacity:1;stroke-miterlimit:4;stroke-dasharray:none" />
    <rect
       y="1005.8633"
       x="60.898117"
       height="0.95257497"
       width="1.2247393"
       id="rect3822"
       style="fill:#000000;fill-opacity:0;stroke:#000000;stroke-width:1.79999995;stroke-linejoin:round;stroke-miterlimit:4;stroke-opacity:1;stroke-dasharray:none;stroke-dashoffset:0" />
    <rect
       y="1018.7911"
       x="45.792999"
       height="1.2247393"
       width="1.9051499"
       id="rect3824"
       style="fill:#000000;fill-opacity:0;stroke:#000000;stroke-width:1.79999995;stroke-linejoin:round;stroke-miterlimit:4;stroke-opacity:1;stroke-dasharray:none;stroke-dashoffset:0" />
    <rect
       y="1008.585"
       x="26.877586"
       height="1.6329857"
       width="2.5855606"
       id="rect3826"
       style="fill:#000000;fill-opacity:0;stroke:#000000;stroke-width:1.79999995;stroke-linejoin:round;stroke-miterlimit:4;stroke-opacity:1;stroke-dasharray:none;stroke-dashoffset:0" />
    <path
       inkscape:connector-curvature="0"
       id="path3844"
       d="m 60.845641,1007.8339 c 0,0 -3.464085,33.1013 7.31307,27.9052"
       style="fill:none;stroke:#00af00;stroke-width:0.44999999;stroke-linecap:butt;stroke-linejoin:miter;stroke-miterlimit:4;stroke-opacity:1;stroke-dasharray:none" />
    <path
       inkscape:connector-curvature="0"
       id="path3848"
       d="m 47.181747,1020.7279 c 0,0 -6.928171,17.3206 -0.769796,16.9357 6.158374,-0.3849 13.086546,-2.3094 21.361862,-1.7321"
       style="fill:none;stroke:#00af00;stroke-width:0.44999999;stroke-linecap:butt;stroke-linejoin:miter;stroke-miterlimit:4;stroke-opacity:1;stroke-dasharray:none" />
    <rect
       ry="2.7216427"
       y="985.25049"
       x="84.440331"
       height="47.356586"
       width="22.045307"
       id="rect3850"
       style="fill:#000000;fill-opacity:0;stroke:#000000;stroke-width:0.99000001;stroke-linejoin:round;stroke-miterlimit:4;stroke-opacity:1;stroke-dasharray:none;stroke-dashoffset:0" />
    <path
       inkscape:connector-curvature="0"
       id="path3852"
       d="m 28.646653,1010.7622 c 0,0 4.485184,51.5884 14.555262,37.1637 10.070079,-14.4247 4.224073,-13.4853 22.731244,-12.1245"
       style="fill:none;stroke:#00af00;stroke-width:0.44999999;stroke-linecap:butt;stroke-linejoin:miter;stroke-miterlimit:4;stroke-opacity:1;stroke-dasharray:none"
       sodipodi:nodetypes="csc" />
    <path
       sodipodi:nodetypes="cssc"
       inkscape:connector-curvature="0"
       id="path3854"
       d="m 17.760082,1028.9973 c 0,0 -5.987615,9.2536 -3.538136,9.7979 2.449479,0.5443 4.626793,1.3608 7.892764,-0.2722 3.265972,-1.633 1.632986,-9.7979 1.632986,-9.7979"
       style="fill:none;stroke:#000000;stroke-width:1px;stroke-linecap:butt;stroke-linejoin:miter;stroke-opacity:1" />
    <path
       inkscape:connector-curvature="0"
       id="path3856"
       d="m 21.842546,1037.9787 c 0,0 0.92622,7.4417 -3.183768,14.4167"
       style="fill:none;stroke:#000000;stroke-width:1px;stroke-linecap:butt;stroke-linejoin:miter;stroke-opacity:1"
       sodipodi:nodetypes="cc" />
    <path
       inkscape:connector-curvature="0"
       id="path3858"
       d="m 13.405453,1038.2509 c 0,0 -1.587544,8.9281 -0.771051,13.8271"
       style="fill:none;stroke:#000000;stroke-width:1px;stroke-linecap:butt;stroke-linejoin:miter;stroke-opacity:1"
       sodipodi:nodetypes="cc" />
    <path
       inkscape:connector-curvature="0"
       id="path3856-0"
       d="m 22.611096,1038.5104 c 0,0 1.654815,9.9348 -0.824117,13.6878"
       style="fill:none;stroke:#000000;stroke-width:1px;stroke-linecap:butt;stroke-linejoin:miter;stroke-opacity:1"
       sodipodi:nodetypes="cc" />
    <g
       transform="translate(-3.263009,19.208672)"
       id="g3925">
      <path
         style="fill:#000000;fill-opacity:0;stroke:#000000;stroke-width:0.99000001;stroke-linejoin:round;stroke-miterlimit:4;stroke-opacity:1;stroke-dashoffset:0"
         d="m 69.344376,1019.0238 6.678488,-5.3063 6.45009,0.1623 -0.540315,6.1247 c -3.853994,-0.6545 -9.074195,-0.381 -12.588263,-0.9807 z"
         id="rect3918"
         inkscape:connector-curvature="0"
         sodipodi:nodetypes="ccccc" />
    </g>
    <path
       inkscape:connector-curvature="0"
       id="path3928"
       d="m 74.293347,1038.2572 c -1.4807,-0.1019 -3.58963,-0.2416 -4.686511,-0.3104 l -1.994331,-0.1249 2.66906,-2.1335 2.66906,-2.1335 2.555888,0 c 1.405738,0 2.666806,0.075 2.802373,0.1615 0.176675,0.1135 0.195214,0.6463 0.06546,1.8813 -0.09957,0.9476 -0.186256,1.9895 -0.192643,2.3152 -0.01,0.5081 -0.09588,0.5876 -0.603892,0.5594 -0.325754,-0.018 -1.803761,-0.1164 -3.284461,-0.2184 z"
       style="fill:#000000;fill-opacity:0;stroke:#000000;stroke-width:0.21322075;stroke-linejoin:round;stroke-miterlimit:4;stroke-opacity:1;stroke-dasharray:none;stroke-dashoffset:0" />
    <path
       inkscape:connector-curvature="0"
       id="path3934"
       d="m 73.0011,1037.9606 c -1.954524,-0.1491 -3.832264,-0.2806 -4.172756,-0.2923 -0.558161,-0.019 -0.380689,-0.212 1.803636,-1.9597 l 2.422713,-1.9383 2.217021,0 c 1.219361,0 2.370325,0.059 2.557697,0.1307 0.374169,0.1436 0.442506,1.2518 0.201118,3.2614 -0.158138,1.3166 0.467429,1.2173 -5.029429,0.7982 z"
       style="fill:#000000;fill-opacity:0;stroke:#0000ff;stroke-width:0;stroke-linejoin:round;stroke-miterlimit:4;stroke-opacity:1;stroke-dasharray:none;stroke-dashoffset:0" />
    <path
       inkscape:connector-curvature="0"
       id="path3968"
       d="m 73.0011,1037.9606 c -1.954524,-0.1491 -3.832264,-0.2806 -4.172756,-0.2923 -0.558161,-0.019 -0.380689,-0.212 1.803636,-1.9597 l 2.422713,-1.9383 2.217021,0 c 1.219361,0 2.370325,0.059 2.557697,0.1307 0.374169,0.1436 0.442506,1.2518 0.201118,3.2614 -0.158138,1.3166 0.467429,1.2173 -5.029429,0.7982 z"
       style="fill:#000000;fill-opacity:0;stroke:#0000ff;stroke-width:0.18000001;stroke-linejoin:round;stroke-miterlimit:4;stroke-opacity:1;stroke-dasharray:none;stroke-dashoffset:0" />
    <path
       inkscape:connector-curvature="0"
       id="path3974"
       d="m 73.0011,1037.8232 c -1.4807,-0.1072 -2.979251,-0.266 -3.330115,-0.3528 -0.637532,-0.1578 -0.636651,-0.1589 1.397317,-1.8279 l 2.03525,-1.67 2.371737,0.06 2.371737,0.06 0.06412,1.2226 c 0.03526,0.6723 -0.01888,1.5446 -0.120318,1.9383 -0.172701,0.6703 -0.245293,0.7174 -1.14099,0.7399 -0.526105,0.013 -2.168036,-0.064 -3.648736,-0.1709 z"
       style="fill:#000000;fill-opacity:0;stroke:#0000ff;stroke-width:0.89999998;stroke-linejoin:round;stroke-miterlimit:4;stroke-opacity:1;stroke-dasharray:none;stroke-dashoffset:0" />
    <path
       inkscape:connector-curvature="0"
       id="path3976"
       d="m 73.539536,1037.2929 c -0.473824,-0.041 -1.367962,-0.1305 -1.986974,-0.1983 l -1.125477,-0.1234 1.378796,-1.1697 1.378797,-1.1697 2.072233,0 2.072233,0 -0.06412,1.3461 -0.06412,1.3461 -1.399935,0.022 c -0.769963,0.012 -1.787608,-0.012 -2.261432,-0.053 z"
       style="fill:#000000;fill-opacity:0;stroke:#0000ff;stroke-width:0.19383705;stroke-linejoin:round;stroke-miterlimit:4;stroke-opacity:1;stroke-dasharray:none;stroke-dashoffset:0" />
    <path
       inkscape:connector-curvature="0"
       id="path3978"
       d="m 72.856804,1037.0199 c -0.849326,-0.07 -1.595612,-0.1784 -1.658412,-0.2416 -0.0628,-0.063 0.389806,-0.5229 1.005793,-1.0216 l 1.119977,-0.9068 1.884526,0 1.884527,0 0,1.1846 0,1.1845 -1.34609,-0.035 c -0.74035,-0.019 -2.040994,-0.092 -2.890321,-0.1615 z"
       style="fill:#000000;fill-opacity:0;stroke:#0000ff;stroke-width:0.19383705;stroke-linejoin:round;stroke-miterlimit:4;stroke-opacity:1;stroke-dasharray:none;stroke-dashoffset:0" />
    <path
       inkscape:connector-curvature="0"
       id="path3980"
       d="m 73.324162,1036.848 c -1.745512,-0.1219 -1.820058,-0.212 -0.857218,-1.0358 0.822452,-0.7038 0.929281,-0.7338 2.634057,-0.7416 l 1.77684,-0.01 0,0.9692 0,0.9692 -1.238404,-0.039 c -0.681121,-0.021 -1.722995,-0.073 -2.315275,-0.1141 z"
       style="fill:#000000;fill-opacity:0;stroke:#0000ff;stroke-width:0.19383705;stroke-linejoin:round;stroke-miterlimit:4;stroke-opacity:1;stroke-dasharray:none;stroke-dashoffset:0" />
    <path
       transform="translate(0,917.35975)"
       inkscape:connector-curvature="0"
       id="path3982"
       d=""
       style="fill:#000000;fill-opacity:0;stroke:#0000ff;stroke-width:0.19383705;stroke-linejoin:round;stroke-miterlimit:4;stroke-opacity:1;stroke-dasharray:none;stroke-dashoffset:0" />
    <path
       transform="translate(0,917.35975)"
       inkscape:connector-curvature="0"
       id="path3984"
       d=""
       style="fill:#000000;fill-opacity:0;stroke:#0000ff;stroke-width:0.19383705;stroke-linejoin:round;stroke-miterlimit:4;stroke-opacity:1;stroke-dasharray:none;stroke-dashoffset:0" />
    <path
       inkscape:connector-curvature="0"
       id="path3986"
       d="m 73.034962,1036.5916 -0.935324,-0.1291 0.574865,-0.5376 c 0.492585,-0.4607 0.819122,-0.5487 2.281414,-0.6151 l 1.706549,-0.077 0,0.7766 0,0.7766 -1.34609,-0.032 c -0.74035,-0.018 -1.766986,-0.091 -2.281414,-0.1615 z"
       style="fill:#000000;fill-opacity:0;stroke:#0000ff;stroke-width:0.19383705;stroke-linejoin:round;stroke-miterlimit:4;stroke-opacity:1;stroke-dasharray:none;stroke-dashoffset:0" />
    <path
       inkscape:connector-curvature="0"
       id="path3988"
       d="m 73.350948,1036.4116 c -0.826618,-0.085 -0.830017,-0.089 -0.350598,-0.4251 0.273952,-0.1919 1.127176,-0.3851 1.965428,-0.4451 l 1.481314,-0.106 0,0.5674 c 0,0.5454 -0.04366,0.566 -1.130716,0.5311 -0.621894,-0.02 -1.506337,-0.075 -1.965428,-0.1223 z"
       style="fill:#000000;fill-opacity:0;stroke:#0000ff;stroke-width:0.19383705;stroke-linejoin:round;stroke-miterlimit:4;stroke-opacity:1;stroke-dasharray:none;stroke-dashoffset:0" />
    <path
       transform="translate(0,917.35975)"
       inkscape:connector-curvature="0"
       id="path3990"
       d=""
       style="fill:#000000;fill-opacity:0;stroke:#0000ff;stroke-width:0.19383705;stroke-linejoin:round;stroke-miterlimit:4;stroke-opacity:1;stroke-dasharray:none;stroke-dashoffset:0" />
    <path
       transform="translate(0,917.35975)"
       inkscape:connector-curvature="0"
       id="path3992"
       d=""
       style="fill:#000000;fill-opacity:0;stroke:#0000ff;stroke-width:0.19383705;stroke-linejoin:round;stroke-miterlimit:4;stroke-opacity:1;stroke-dasharray:none;stroke-dashoffset:0" />
    <path
       inkscape:connector-curvature="0"
       id="path3994"
       d="m 73.764227,1036.1597 c -0.338885,-0.1326 -0.254512,-0.1924 0.430749,-0.3056 1.409808,-0.2328 2.036741,-0.1781 2.036741,0.1776 0,0.244 -0.250525,0.3194 -1.023029,0.3079 -0.562665,-0.01 -1.212673,-0.089 -1.444461,-0.1799 z"
       style="fill:#000000;fill-opacity:0;stroke:#0000ff;stroke-width:0.19383705;stroke-linejoin:round;stroke-miterlimit:4;stroke-opacity:1;stroke-dasharray:none;stroke-dashoffset:0" />
    <path
       transform="translate(0,917.35975)"
       inkscape:connector-curvature="0"
       id="path3996"
       d=""
       style="fill:#000000;fill-opacity:0;stroke:#0000ff;stroke-width:0.19383705;stroke-linejoin:round;stroke-miterlimit:4;stroke-opacity:1;stroke-dasharray:none;stroke-dashoffset:0" />
    <path
       inkscape:connector-curvature="0"
       id="path3998"
       d="m 74.775428,1035.9914 c 0.205917,-0.054 0.593591,-0.056 0.861498,0 0.267907,0.051 0.09943,0.096 -0.374394,0.098 -0.473824,0 -0.69302,-0.04 -0.487104,-0.094 z"
       style="fill:#000000;fill-opacity:0;stroke:#0000ff;stroke-width:0.19383705;stroke-linejoin:round;stroke-miterlimit:4;stroke-opacity:1;stroke-dasharray:none;stroke-dashoffset:0" />
    <path
       sodipodi:nodetypes="cssc"
       inkscape:connector-curvature="0"
       id="path4000"
       d="m 75.801077,1032.2811 c 0,0 -3.015733,-4.6559 14.193071,4.7994 10.506242,5.7727 13.999352,-0.6461 10.337982,-2.5845 -3.661373,-1.9383 -9.261109,-7.9688 -7.107364,-10.1226"
       style="fill:none;stroke:#838383;stroke-width:0.99000001;stroke-linecap:butt;stroke-linejoin:miter;stroke-miterlimit:4;stroke-opacity:1;stroke-dasharray:none;marker-end:none" />
    <path
       style="fill:#000000;fill-opacity:0;stroke:#0000ff;stroke-width:0.9;stroke-linecap:butt;stroke-linejoin:miter;stroke-miterlimit:4;stroke-opacity:1;stroke-dasharray:none;marker-end:none"
       d="m 156.82039,994.95244 c -0.12243,-0.32376 -3.28139,-6.3779 -3.28139,-6.3779"
       id="path5308-6"
       inkscape:connector-curvature="0" />
    <path
       style="fill:#000000;fill-opacity:0;stroke:#ff0000;stroke-width:0.9;stroke-linecap:butt;stroke-linejoin:miter;stroke-miterlimit:4;stroke-opacity:1;stroke-dasharray:none;marker-end:none"
       d="m 156.78155,994.886 c -0.31098,-0.15198 -4.2019,-2.27356 -4.2019,-2.27356"
       id="path5308-9-0"
       inkscape:connector-curvature="0"
       inkscape:transform-center-x="3.1459634"
       inkscape:transform-center-y="-1.444102"
       sodipodi:nodetypes="cc" />
    <path
       style="fill:none;stroke:#ffffff;stroke-width:0.44999999;stroke-linecap:butt;stroke-linejoin:miter;stroke-miterlimit:4;stroke-opacity:1;stroke-dasharray:none"
       d="m 125.34806,999.62373 18.79956,8.52537 12.56947,-13.22526"
       id="path6239"
       inkscape:connector-curvature="0" />
    <path
       style="fill:#000000;fill-opacity:0;stroke:#00ff00;stroke-width:0.9;stroke-linecap:butt;stroke-linejoin:miter;stroke-miterlimit:4;stroke-opacity:1;stroke-dasharray:none;marker-end:none"
       d="m 156.98638,994.80786 c -0.3069,0.16005 -5.94244,4.01652 -5.94244,4.01652"
       id="path5308-5-0"
       inkscape:connector-curvature="0" />
    <path
       style="fill:#000000;fill-opacity:0;stroke:#0000ff;stroke-width:0.9;stroke-linecap:butt;stroke-linejoin:miter;stroke-miterlimit:4;stroke-opacity:1;stroke-dasharray:none;marker-end:none"
       d="m 144.07472,1008.224 c 0.18007,-0.2956 3.01264,-6.5092 3.01264,-6.5092"
       id="path5308-3"
       inkscape:connector-curvature="0" />
    <path
       style="fill:#000000;fill-opacity:0;stroke:#ff0000;stroke-width:0.9;stroke-linecap:butt;stroke-linejoin:miter;stroke-miterlimit:4;stroke-opacity:1;stroke-dasharray:none;marker-end:none"
       d="m 144.10324,1008.1525 c -0.0713,-0.3387 -0.79029,-4.7118 -0.79029,-4.7118"
       id="path5308-9-2"
       inkscape:connector-curvature="0"
       inkscape:transform-center-x="-1.808595"
       inkscape:transform-center-y="-2.9469626"
       sodipodi:nodetypes="cc" />
    <path
       style="fill:#000000;fill-opacity:0;stroke:#00ff00;stroke-width:0.9;stroke-linecap:butt;stroke-linejoin:miter;stroke-miterlimit:4;stroke-opacity:1;stroke-dasharray:none;marker-end:none"
       d="m 144.2908,1008.266 c -0.31492,-0.1437 -6.82121,-2.2173 -6.82121,-2.2173"
       id="path5308-5-6"
       inkscape:connector-curvature="0" />
    <path
       style="fill:#000000;fill-opacity:0;stroke:#0000ff;stroke-width:0.9;stroke-linecap:butt;stroke-linejoin:miter;stroke-miterlimit:4;stroke-opacity:1;stroke-dasharray:none;marker-end:none"
       d="m 125.16839,999.71234 c 0.33579,-0.084 6.71585,-2.51844 6.71585,-2.51844"
       id="path5308"
       inkscape:connector-curvature="0" />
    <path
       style="fill:#000000;fill-opacity:0;stroke:#ff0000;stroke-width:0.9;stroke-linecap:butt;stroke-linejoin:miter;stroke-miterlimit:4;stroke-opacity:1;stroke-dasharray:none;marker-end:none"
       d="m 125.23889,999.68148 c 0.18707,-0.29123 2.7462,-3.90941 2.7462,-3.90941"
       id="path5308-9"
       inkscape:connector-curvature="0"
       inkscape:transform-center-x="-1.808595"
       inkscape:transform-center-y="-2.9469626"
       sodipodi:nodetypes="cc" />
    <path
       style="fill:#000000;fill-opacity:0;stroke:#00ff00;stroke-width:0.9;stroke-linecap:butt;stroke-linejoin:miter;stroke-miterlimit:4;stroke-opacity:1;stroke-dasharray:none;marker-end:none"
       d="m 125.29272,999.894 c -0.12333,-0.32342 -3.29917,-6.36872 -3.29917,-6.36872"
       id="path5308-5"
       inkscape:connector-curvature="0" />
    <path
       style="fill:none;stroke:#000000;stroke-width:1px;stroke-linecap:butt;stroke-linejoin:miter;stroke-opacity:1"
       d="m 134.63324,52.885058 c 0,0 0,2.473171 -1.85488,5.873781"
       id="path7106"
       inkscape:connector-curvature="0"
       transform="translate(0,966.8598)" />
    <path
       style="fill:none;stroke:#000000;stroke-width:1px;stroke-linecap:butt;stroke-linejoin:miter;stroke-opacity:1"
       d="m 147.45336,1019.1266 c 0,0 0,3.246 1.70031,6.8012"
       id="path7108"
       inkscape:connector-curvature="0" />
  </g>
</svg>
