<?xml version="1.0" encoding="UTF-8" standalone="no"?>
<!-- Created with Inkscape (http://www.inkscape.org/) -->

<svg
   xmlns:dc="http://purl.org/dc/elements/1.1/"
   xmlns:cc="http://creativecommons.org/ns#"
   xmlns:rdf="http://www.w3.org/1999/02/22-rdf-syntax-ns#"
   xmlns:svg="http://www.w3.org/2000/svg"
   xmlns="http://www.w3.org/2000/svg"
   xmlns:xlink="http://www.w3.org/1999/xlink"
   xmlns:sodipodi="http://sodipodi.sourceforge.net/DTD/sodipodi-0.dtd"
   xmlns:inkscape="http://www.inkscape.org/namespaces/inkscape"
   id="svg2985"
   version="1.1"
   inkscape:version="0.48.4 r9939"
   width="540"
   height="90"
   sodipodi:docname="clk.svg">
  <metadata
     id="metadata2991">
    <rdf:RDF>
      <cc:Work
         rdf:about="">
        <dc:format>image/svg+xml</dc:format>
        <dc:type
           rdf:resource="http://purl.org/dc/dcmitype/StillImage" />
        <dc:title></dc:title>
      </cc:Work>
    </rdf:RDF>
  </metadata>
  <defs
     id="defs2989">
    <marker
       inkscape:stockid="TriangleOutM"
       orient="auto"
       refY="0.0"
       refX="0.0"
       id="TriangleOutM"
       style="overflow:visible">
      <path
         id="path4781"
         d="M 5.77,0.0 L -2.88,5.0 L -2.88,-5.0 L 5.77,0.0 z "
         style="fill-rule:evenodd;stroke:#000000;stroke-width:1.0pt"
         transform="scale(0.4)" />
    </marker>
    <marker
       inkscape:stockid="Arrow2Mend"
       orient="auto"
       refY="0.0"
       refX="0.0"
       id="Arrow2Mend"
       style="overflow:visible;">
      <path
         id="path4663"
         style="fill-rule:evenodd;stroke-width:0.62500000;stroke-linejoin:round;"
         d="M 8.7185878,4.0337352 L -2.2072895,0.016013256 L 8.7185884,-4.0017078 C 6.9730900,-1.6296469 6.9831476,1.6157441 8.7185878,4.0337352 z "
         transform="scale(0.6) rotate(180) translate(0,0)" />
    </marker>
    <pattern
       inkscape:collect="always"
       xlink:href="#pattern3789"
       id="pattern4515"
       patternTransform="translate(275.7,-40.5)" />
    <pattern
       patternUnits="userSpaceOnUse"
       width="2"
       height="27"
       patternTransform="translate(157,86)"
       id="pattern3789">
      <path
         inkscape:connector-curvature="0"
         id="path3785"
         d="m 0.5,0 0,27"
         style="fill:none;stroke:#000000;stroke-width:1px;stroke-linecap:butt;stroke-linejoin:miter;stroke-opacity:1" />
      <path
         inkscape:connector-curvature="0"
         id="path3787"
         d="m 1.48843,0 0,27"
         style="fill:none;stroke:#000000;stroke-width:1px;stroke-linecap:butt;stroke-linejoin:miter;stroke-opacity:0" />
    </pattern>
  </defs>
  <sodipodi:namedview
     pagecolor="#ffffff"
     bordercolor="#666666"
     borderopacity="1"
     objecttolerance="10"
     gridtolerance="10"
     guidetolerance="10"
     inkscape:pageopacity="0"
     inkscape:pageshadow="2"
     inkscape:window-width="1364"
     inkscape:window-height="751"
     id="namedview2987"
     showgrid="true"
     units="in"
     inkscape:document-units="in"
     inkscape:zoom="0.84712483"
     inkscape:cx="468.09993"
     inkscape:cy="135.75279"
     inkscape:window-x="0"
     inkscape:window-y="15"
     inkscape:window-maximized="0"
     inkscape:current-layer="svg2985"
     showguides="true"
     inkscape:guide-bbox="true">
    <inkscape:grid
       type="xygrid"
       id="grid2995"
       empspacing="5"
       visible="true"
       enabled="true"
       snapvisiblegridlinesonly="false"
       spacingx="0.01in"
       spacingy="0.01in"
       units="in" />
  </sodipodi:namedview>
  <path
     style="fill:none;stroke:#ff0000;stroke-width:1.8;stroke-linecap:butt;stroke-linejoin:miter;stroke-miterlimit:4;stroke-opacity:1;stroke-dasharray:none"
     d="m 118.7,67.500006 45,0 0,-45 45,0 0,45 45,0 0,-45 45,0 0,45 45,0 0,-45 45,0 0,45 45,0 0,-45 45,0 0,45 27,0"
     id="path2997"
     inkscape:connector-curvature="0" />
  <path
     style="fill:none;stroke:#0000ff;stroke-width:1.8;stroke-linecap:butt;stroke-linejoin:miter;stroke-miterlimit:4;stroke-opacity:1;stroke-dasharray:none"
     d="m 140.8399,77.97352 45,0 0,-45.000004 45,0 0,45.000004 45,0 0,-45.000004 45,0 0,45.000004 45,0 0,-45.000004 45,0 0,45.000004 45,0 0,-45.000004 45,0 0,45.000004 27,0"
     id="path2997-9"
     inkscape:connector-curvature="0" />
  <rect
     style="opacity:0.70815448;fill:url(#pattern4515);fill-opacity:1;stroke:#000000;stroke-width:2.70000005;stroke-linejoin:round;stroke-miterlimit:4;stroke-opacity:0;stroke-dasharray:none;stroke-dashoffset:0"
     id="rect4511"
     width="413.10001"
     height="15.299994"
     x="118.7"
     y="12.599986" />
  <g
     transform="translate(1.45,-119.81099)"
     style="font-size:12px;font-style:normal;font-weight:normal;line-height:125%;letter-spacing:0px;word-spacing:0px;fill:#000000;fill-opacity:1;stroke:none;font-family:Sans"
     id="flowRoot4517">
    <path
       d="m 2.4277344,134.46294 5.0273437,0 0,0.9961 -3.84375,0 0,2.57812 3.46875,0 0,0.9961 -3.46875,0 0,4.17773 -1.1835937,0 0,-8.74805"
       style=""
       id="path4596" />
    <path
       d="m 10.525391,135.4356 0,3.28711 1.488281,0 c 0.550777,0 0.976558,-0.14257 1.277344,-0.42774 0.300775,-0.28515 0.451166,-0.6914 0.451172,-1.21875 -6e-6,-0.52343 -0.150397,-0.92772 -0.451172,-1.21289 -0.300786,-0.28514 -0.726567,-0.42772 -1.277344,-0.42773 l -1.488281,0 m -1.1835941,-0.97266 2.6718751,0 c 0.980464,1e-5 1.720697,0.22267 2.220703,0.66797 0.5039,0.44142 0.755853,1.08985 0.755859,1.94531 -6e-6,0.86329 -0.251959,1.51563 -0.755859,1.95704 -0.500006,0.44141 -1.240239,0.66211 -2.220703,0.6621 l -1.488281,0 0,3.51563 -1.1835941,0 0,-8.74805"
       style=""
       id="path4598" />
    <path
       d="m 22.548828,141.96294 0,-2.34961 -1.933594,0 0,-0.97265 3.105469,0 0,3.75586 c -0.457039,0.32422 -0.960945,0.57031 -1.511719,0.73828 -0.550787,0.16406 -1.138677,0.24609 -1.763672,0.24609 -1.367191,0 -2.437502,-0.39844 -3.210937,-1.19531 -0.769532,-0.80078 -1.154298,-1.91406 -1.154297,-3.33984 -1e-6,-1.42969 0.384765,-2.54297 1.154297,-3.33985 0.773435,-0.80077 1.843746,-1.20116 3.210937,-1.20117 0.570307,1e-5 1.111322,0.0703 1.623047,0.21094 0.515618,0.14063 0.990227,0.34766 1.423828,0.62109 l 0,1.25977 c -0.437507,-0.37109 -0.90235,-0.65039 -1.394531,-0.83789 -0.492193,-0.1875 -1.009771,-0.28125 -1.552734,-0.28125 -1.070317,0 -1.875003,0.29883 -2.414063,0.89648 -0.535158,0.59766 -0.802736,1.48829 -0.802734,2.67188 -2e-6,1.17969 0.267576,2.06836 0.802734,2.66601 0.53906,0.59766 1.343746,0.89649 2.414063,0.89649 0.417963,0 0.79101,-0.0352 1.11914,-0.10547 0.328119,-0.0742 0.62304,-0.1875 0.884766,-0.33985"
       style=""
       id="path4600" />
    <path
       d="m 28.8125,135.62896 -1.605469,4.35351 3.216797,0 -1.611328,-4.35351 m -0.667969,-1.16602 1.341797,0 3.333984,8.74805 -1.230468,0 -0.796875,-2.24414 -3.94336,0 -0.796875,2.24414 -1.248047,0 3.339844,-8.74805"
       style=""
       id="path4602" />
    <path
       d="m 34.109375,141.72271 1.236328,0 0,1.48828 -1.236328,0 0,-1.48828 m 0,-4.7168 1.236328,0 0,1.48828 -1.236328,0 0,-1.48828"
       style=""
       id="path4604" />
    <path
       d="m 42.751953,142.22661 0,3.48047 -1.083984,0 0,-9.05859 1.083984,0 0,0.99609 c 0.22656,-0.39062 0.511716,-0.67968 0.855469,-0.86718 0.347653,-0.1914 0.761715,-0.28711 1.242187,-0.28711 0.79687,0 1.443354,0.31641 1.939453,0.94922 0.499994,0.63281 0.749994,1.46484 0.75,2.49609 -6e-6,1.03125 -0.250006,1.86328 -0.75,2.49609 -0.496099,0.63282 -1.142583,0.94922 -1.939453,0.94922 -0.480472,0 -0.894534,-0.0937 -1.242187,-0.28125 -0.343753,-0.1914 -0.628909,-0.48242 -0.855469,-0.87305 m 3.667969,-2.29101 c -6e-6,-0.79297 -0.164068,-1.41406 -0.492188,-1.86328 -0.324223,-0.45312 -0.771489,-0.67968 -1.341797,-0.67969 -0.570315,1e-5 -1.019534,0.22657 -1.347656,0.67969 -0.324221,0.44922 -0.48633,1.07031 -0.486328,1.86328 -2e-6,0.79297 0.162107,1.41602 0.486328,1.86914 0.328122,0.44922 0.777341,0.67383 1.347656,0.67383 0.570308,0 1.017574,-0.22461 1.341797,-0.67383 0.32812,-0.45312 0.492182,-1.07617 0.492188,-1.86914"
       style=""
       id="path4606" />
    <path
       d="m 51.869141,137.40435 c -0.578128,1e-5 -1.035159,0.22657 -1.371094,0.67969 -0.33594,0.44922 -0.503908,1.06641 -0.503906,1.85156 -2e-6,0.78516 0.166013,1.4043 0.498046,1.85742 0.335935,0.44922 0.794919,0.67383 1.376954,0.67383 0.574214,0 1.029292,-0.22656 1.365234,-0.67969 0.335932,-0.45312 0.503901,-1.07031 0.503906,-1.85156 -5e-6,-0.77734 -0.167974,-1.39257 -0.503906,-1.8457 -0.335942,-0.45703 -0.79102,-0.68554 -1.365234,-0.68555 m 0,-0.91406 c 0.937495,0 1.673822,0.30469 2.208984,0.91406 0.53515,0.60938 0.802728,1.45313 0.802734,2.53125 -6e-6,1.07422 -0.267584,1.91797 -0.802734,2.53125 -0.535162,0.60937 -1.271489,0.91406 -2.208984,0.91406 -0.941409,0 -1.67969,-0.30469 -2.214844,-0.91406 -0.531251,-0.61328 -0.796876,-1.45703 -0.796875,-2.53125 -10e-7,-1.07812 0.265624,-1.92187 0.796875,-2.53125 0.535154,-0.60937 1.273435,-0.91406 2.214844,-0.91406"
       style=""
       id="path4608" />
    <path
       d="m 60.845703,136.84185 0,1.01953 c -0.304692,-0.15624 -0.621098,-0.27343 -0.949219,-0.35156 -0.328129,-0.0781 -0.667972,-0.11718 -1.019531,-0.11719 -0.535159,1e-5 -0.937502,0.082 -1.207031,0.24609 -0.265627,0.16407 -0.398439,0.41017 -0.398438,0.73829 -10e-7,0.25 0.0957,0.44727 0.28711,0.59179 0.191404,0.14063 0.576169,0.2754 1.154297,0.4043 l 0.36914,0.082 c 0.765621,0.16407 1.308589,0.39649 1.628906,0.69727 0.324214,0.29687 0.486323,0.71289 0.486329,1.24804 -6e-6,0.60938 -0.242193,1.0918 -0.726563,1.44727 -0.480473,0.35547 -1.142582,0.5332 -1.986328,0.5332 -0.351565,0 -0.718752,-0.0351 -1.101563,-0.10547 -0.378907,-0.0664 -0.779297,-0.16797 -1.201171,-0.30468 l 0,-1.11329 c 0.398436,0.20704 0.791014,0.36329 1.177734,0.46875 0.386717,0.10157 0.769529,0.15235 1.148437,0.15235 0.50781,0 0.898434,-0.0859 1.171875,-0.25781 0.273434,-0.17578 0.410152,-0.42188 0.410157,-0.73829 -5e-6,-0.29296 -0.09961,-0.51757 -0.298828,-0.67382 -0.195317,-0.15625 -0.626957,-0.30664 -1.294922,-0.45118 l -0.375,-0.0879 c -0.667971,-0.14062 -1.150392,-0.35546 -1.447266,-0.64453 -0.296876,-0.29296 -0.445313,-0.69335 -0.445312,-1.20117 -10e-7,-0.61718 0.218749,-1.09374 0.65625,-1.42969 0.437498,-0.33593 1.058591,-0.5039 1.863281,-0.5039 0.398434,0 0.773433,0.0293 1.125,0.0879 0.351558,0.0586 0.675776,0.14649 0.972656,0.26367"
       style=""
       id="path4610" />
    <path
       d="m 68.533203,139.66021 0,0.52734 -4.957031,0 c 0.04687,0.74219 0.269529,1.3086 0.667969,1.69922 0.402341,0.38672 0.960934,0.58008 1.675781,0.58008 0.414058,0 0.814448,-0.0508 1.201172,-0.15234 0.390619,-0.10157 0.777337,-0.25391 1.160156,-0.45704 l 0,1.01954 c -0.386725,0.16406 -0.783209,0.28906 -1.189453,0.375 -0.406255,0.0859 -0.818364,0.1289 -1.236328,0.1289 -1.046878,0 -1.876956,-0.30469 -2.490235,-0.91406 -0.609376,-0.60937 -0.914063,-1.43359 -0.914062,-2.47266 -10e-7,-1.07421 0.289061,-1.92577 0.867187,-2.55468 0.58203,-0.63281 1.365232,-0.94922 2.34961,-0.94922 0.882807,0 1.580072,0.28516 2.091797,0.85547 0.515618,0.56641 0.77343,1.33789 0.773437,2.31445 m -1.078125,-0.31641 c -0.0078,-0.58984 -0.173833,-1.06054 -0.498047,-1.41211 -0.320317,-0.35155 -0.746098,-0.52733 -1.277344,-0.52734 -0.601565,1e-5 -1.083987,0.16993 -1.447265,0.50976 -0.359377,0.33985 -0.566408,0.81837 -0.621094,1.43555 l 3.84375,-0.006"
       style=""
       id="path4612" />
    <path
       d="m 74.621094,137.64458 0,-3.55078 1.078125,0 0,9.11719 -1.078125,0 0,-0.98438 c -0.226568,0.39063 -0.513677,0.68165 -0.861328,0.87305 -0.343755,0.1875 -0.757817,0.28125 -1.242188,0.28125 -0.792971,0 -1.439455,-0.3164 -1.939453,-0.94922 -0.496095,-0.63281 -0.744141,-1.46484 -0.744141,-2.49609 0,-1.03125 0.248046,-1.86328 0.744141,-2.49609 0.499998,-0.63281 1.146482,-0.94922 1.939453,-0.94922 0.484371,0 0.898433,0.0957 1.242188,0.28711 0.347651,0.1875 0.63476,0.47656 0.861328,0.86718 m -3.673828,2.29102 c -2e-6,0.79297 0.162107,1.41602 0.486328,1.86914 0.328122,0.44922 0.77734,0.67383 1.347656,0.67383 0.570308,0 1.019527,-0.22461 1.347656,-0.67383 0.32812,-0.45312 0.492182,-1.07617 0.492188,-1.86914 -6e-6,-0.79297 -0.164068,-1.41406 -0.492188,-1.86328 -0.328129,-0.45312 -0.777348,-0.67968 -1.347656,-0.67969 -0.570316,1e-5 -1.019534,0.22657 -1.347656,0.67969 -0.324221,0.44922 -0.48633,1.07031 -0.486328,1.86328"
       style=""
       id="path4614" />
    <path
       d="m 82.238281,139.85357 c -5e-6,-0.78125 -0.162114,-1.38672 -0.486328,-1.81641 -0.320317,-0.42968 -0.771488,-0.64452 -1.353516,-0.64453 -0.578128,1e-5 -1.029299,0.21485 -1.353515,0.64453 -0.320315,0.42969 -0.480471,1.03516 -0.480469,1.81641 -2e-6,0.77734 0.160154,1.38086 0.480469,1.81054 0.324216,0.42969 0.775387,0.64454 1.353515,0.64454 0.582028,0 1.033199,-0.21485 1.353516,-0.64454 0.324214,-0.42968 0.486323,-1.0332 0.486328,-1.81054 m 1.078125,2.54297 c -6e-6,1.11718 -0.248053,1.94726 -0.74414,2.49023 -0.496099,0.54687 -1.255864,0.82031 -2.279297,0.82031 -0.37891,0 -0.736331,-0.0293 -1.072266,-0.0879 -0.335939,-0.0547 -0.662111,-0.14062 -0.978516,-0.25781 l 0,-1.04883 c 0.316405,0.17188 0.628905,0.29883 0.9375,0.38086 0.308592,0.082 0.623044,0.12305 0.94336,0.12305 0.707027,0 1.236323,-0.18555 1.58789,-0.55664 0.351558,-0.36719 0.527339,-0.92383 0.527344,-1.66992 l 0,-0.53321 c -0.222661,0.38672 -0.507817,0.67578 -0.855469,0.86719 -0.34766,0.19141 -0.763675,0.28711 -1.248046,0.28711 -0.80469,0 -1.453127,-0.30664 -1.945313,-0.91992 -0.492188,-0.61328 -0.738282,-1.42578 -0.738281,-2.4375 -10e-7,-1.01562 0.246093,-1.83007 0.738281,-2.44336 0.492186,-0.61328 1.140623,-0.91992 1.945313,-0.91992 0.484371,0 0.900386,0.0957 1.248046,0.28711 0.347652,0.19141 0.632808,0.48047 0.855469,0.86718 l 0,-0.99609 1.078125,0 0,5.74805"
       style=""
       id="path4616" />
    <path
       d="m 91.150391,139.66021 0,0.52734 -4.957032,0 c 0.04687,0.74219 0.26953,1.3086 0.667969,1.69922 0.402341,0.38672 0.960934,0.58008 1.675781,0.58008 0.414058,0 0.814449,-0.0508 1.201172,-0.15234 0.39062,-0.10157 0.777338,-0.25391 1.160156,-0.45704 l 0,1.01954 c -0.386724,0.16406 -0.783208,0.28906 -1.189453,0.375 -0.406255,0.0859 -0.818363,0.1289 -1.236328,0.1289 -1.046878,0 -1.876955,-0.30469 -2.490234,-0.91406 -0.609376,-0.60937 -0.914063,-1.43359 -0.914063,-2.47266 0,-1.07421 0.289062,-1.92577 0.867188,-2.55468 0.582029,-0.63281 1.365231,-0.94922 2.349609,-0.94922 0.882808,0 1.580073,0.28516 2.091797,0.85547 0.515619,0.56641 0.773431,1.33789 0.773438,2.31445 m -1.078125,-0.31641 c -0.0078,-0.58984 -0.173834,-1.06054 -0.498047,-1.41211 -0.320318,-0.35155 -0.746098,-0.52733 -1.277344,-0.52734 -0.601566,1e-5 -1.083987,0.16993 -1.447266,0.50976 -0.359377,0.33985 -0.566408,0.81837 -0.621093,1.43555 l 3.84375,-0.006"
       style=""
       id="path4618" />
    <path
       d="m 101.46289,136.90044 0,1.00782 c -0.30469,-0.16797 -0.61133,-0.29297 -0.91992,-0.375 -0.30469,-0.0859 -0.613287,-0.1289 -0.925783,-0.12891 -0.699222,1e-5 -1.24219,0.22266 -1.628906,0.66797 -0.38672,0.44141 -0.58008,1.0625 -0.580078,1.86328 -2e-6,0.80078 0.193358,1.42383 0.580078,1.86914 0.386716,0.44141 0.929684,0.66211 1.628906,0.66211 0.312496,0 0.621093,-0.041 0.925783,-0.12305 0.30859,-0.0859 0.61523,-0.21289 0.91992,-0.38086 l 0,0.9961 c -0.30079,0.14062 -0.61329,0.24609 -0.9375,0.3164 -0.32032,0.0703 -0.662113,0.10547 -1.02539,0.10547 -0.988284,0 -1.77344,-0.31054 -2.355469,-0.93164 -0.582032,-0.62109 -0.873047,-1.45898 -0.873047,-2.51367 0,-1.07031 0.292968,-1.9121 0.878907,-2.52539 0.589841,-0.61328 1.396481,-0.91992 2.419921,-0.91992 0.332027,0 0.656248,0.0352 0.972658,0.10547 0.3164,0.0664 0.62304,0.16797 0.91992,0.30468"
       style=""
       id="path4620" />
    <path
       d="m 103.34961,134.0938 1.07812,0 0,9.11719 -1.07812,0 0,-9.11719"
       style=""
       id="path4622" />
    <path
       d="m 106.63672,134.0938 1.08398,0 0,5.38477 3.2168,-2.83008 1.37695,0 -3.48047,3.07031 3.62696,3.49219 -1.40625,0 -3.33399,-3.20508 0,3.20508 -1.08398,0 0,-9.11719"
       style=""
       id="path4624" />
  </g>
  <g
     transform="translate(24.96875,-125.26724)"
     style="font-size:12px;font-style:normal;font-weight:normal;line-height:125%;letter-spacing:0px;word-spacing:0px;fill:#000000;fill-opacity:1;stroke:none;font-family:Sans"
     id="flowRoot4525">
    <path
       d="m 21.208984,174.11919 5.53125,0 0,0.9961 -4.347656,0 0,2.58984 4.166016,0 0,0.99609 -4.166016,0 0,3.16993 4.453125,0 0,0.99609 -5.636719,0 0,-8.74805"
       style=""
       id="path4563" />
    <path
       d="m 34.210937,178.9063 0,3.96094 -1.078125,0 0,-3.92578 c -5e-6,-0.62109 -0.121099,-1.08593 -0.363281,-1.39453 -0.242192,-0.30859 -0.605473,-0.46289 -1.089844,-0.46289 -0.582034,0 -1.041018,0.18555 -1.376953,0.55664 -0.335939,0.3711 -0.503908,0.87695 -0.503906,1.51758 l 0,3.70898 -1.083984,0 0,-6.5625 1.083984,0 0,1.01953 c 0.25781,-0.39452 0.560544,-0.68945 0.908203,-0.88476 0.351559,-0.19531 0.755856,-0.29297 1.212891,-0.29297 0.753901,0 1.324213,0.23438 1.710937,0.70312 0.386713,0.46485 0.580072,1.1504 0.580078,2.05664"
       style=""
       id="path4565" />
    <path
       d="m 41.095703,176.55669 0,1.00782 c -0.304693,-0.16797 -0.611333,-0.29297 -0.919922,-0.375 -0.304692,-0.0859 -0.613285,-0.1289 -0.925781,-0.12891 -0.699222,1e-5 -1.24219,0.22266 -1.628906,0.66797 -0.386721,0.44141 -0.58008,1.0625 -0.580078,1.86328 -2e-6,0.80078 0.193357,1.42383 0.580078,1.86914 0.386716,0.44141 0.929684,0.66211 1.628906,0.66211 0.312496,0 0.621089,-0.041 0.925781,-0.12305 0.308589,-0.0859 0.615229,-0.21289 0.919922,-0.38086 l 0,0.9961 c -0.300787,0.14062 -0.613286,0.24609 -0.9375,0.3164 -0.320317,0.0703 -0.662114,0.10547 -1.025391,0.10547 -0.988284,0 -1.773439,-0.31054 -2.355468,-0.93164 -0.582032,-0.62109 -0.873048,-1.45898 -0.873047,-2.51367 -10e-7,-1.07031 0.292968,-1.9121 0.878906,-2.52539 0.589842,-0.61328 1.396482,-0.91992 2.419922,-0.91992 0.332027,0 0.656245,0.0352 0.972656,0.10547 0.316401,0.0664 0.623042,0.16797 0.919922,0.30468"
       style=""
       id="path4567" />
    <path
       d="m 45.525391,177.0606 c -0.578128,1e-5 -1.035159,0.22657 -1.371094,0.67969 -0.33594,0.44922 -0.503908,1.06641 -0.503906,1.85156 -2e-6,0.78516 0.166013,1.4043 0.498046,1.85742 0.335935,0.44922 0.794919,0.67383 1.376954,0.67383 0.574214,0 1.029292,-0.22656 1.365234,-0.67969 0.335932,-0.45312 0.503901,-1.07031 0.503906,-1.85156 -5e-6,-0.77734 -0.167974,-1.39257 -0.503906,-1.8457 -0.335942,-0.45703 -0.79102,-0.68554 -1.365234,-0.68555 m 0,-0.91406 c 0.937495,0 1.673822,0.30469 2.208984,0.91406 0.53515,0.60938 0.802728,1.45313 0.802734,2.53125 -6e-6,1.07422 -0.267584,1.91797 -0.802734,2.53125 -0.535162,0.60937 -1.271489,0.91406 -2.208984,0.91406 -0.941409,0 -1.67969,-0.30469 -2.214844,-0.91406 -0.531251,-0.61328 -0.796876,-1.45703 -0.796875,-2.53125 -10e-7,-1.07812 0.265624,-1.92187 0.796875,-2.53125 0.535154,-0.60937 1.273435,-0.91406 2.214844,-0.91406"
       style=""
       id="path4569" />
    <path
       d="m 54.636719,177.30083 0,-3.55078 1.078125,0 0,9.11719 -1.078125,0 0,-0.98438 c -0.226568,0.39063 -0.513677,0.68165 -0.861328,0.87305 -0.343755,0.1875 -0.757817,0.28125 -1.242188,0.28125 -0.792971,0 -1.439455,-0.3164 -1.939453,-0.94922 -0.496095,-0.63281 -0.744141,-1.46484 -0.744141,-2.49609 0,-1.03125 0.248046,-1.86328 0.744141,-2.49609 0.499998,-0.63281 1.146482,-0.94922 1.939453,-0.94922 0.484371,0 0.898433,0.0957 1.242188,0.28711 0.347651,0.1875 0.63476,0.47656 0.861328,0.86718 m -3.673828,2.29102 c -2e-6,0.79297 0.162107,1.41602 0.486328,1.86914 0.328122,0.44922 0.77734,0.67383 1.347656,0.67383 0.570308,0 1.019527,-0.22461 1.347656,-0.67383 0.32812,-0.45312 0.492182,-1.07617 0.492188,-1.86914 -6e-6,-0.79297 -0.164068,-1.41406 -0.492188,-1.86328 -0.328129,-0.45312 -0.777348,-0.67968 -1.347656,-0.67969 -0.570316,1e-5 -1.019534,0.22657 -1.347656,0.67969 -0.324221,0.44922 -0.48633,1.07031 -0.486328,1.86328"
       style=""
       id="path4571" />
    <path
       d="m 63.548828,179.31646 0,0.52734 -4.957031,0 c 0.04687,0.74219 0.269529,1.3086 0.667969,1.69922 0.402341,0.38672 0.960934,0.58008 1.675781,0.58008 0.414058,0 0.814448,-0.0508 1.201172,-0.15234 0.390619,-0.10157 0.777337,-0.25391 1.160156,-0.45704 l 0,1.01954 c -0.386725,0.16406 -0.783209,0.28906 -1.189453,0.375 -0.406255,0.0859 -0.818364,0.1289 -1.236328,0.1289 -1.046878,0 -1.876956,-0.30469 -2.490235,-0.91406 -0.609376,-0.60937 -0.914063,-1.43359 -0.914062,-2.47266 -10e-7,-1.07421 0.289061,-1.92577 0.867187,-2.55468 0.58203,-0.63281 1.365232,-0.94922 2.34961,-0.94922 0.882807,0 1.580072,0.28516 2.091797,0.85547 0.515618,0.56641 0.77343,1.33789 0.773437,2.31445 m -1.078125,-0.31641 c -0.0078,-0.58984 -0.173833,-1.06054 -0.498047,-1.41211 -0.320317,-0.35155 -0.746098,-0.52733 -1.277344,-0.52734 -0.601565,1e-5 -1.083987,0.16993 -1.447265,0.50976 -0.359377,0.33985 -0.566408,0.81837 -0.621094,1.43555 l 3.84375,-0.006"
       style=""
       id="path4573" />
    <path
       d="m 69.121094,177.31255 c -0.121099,-0.0703 -0.253911,-0.12109 -0.398438,-0.15234 -0.140629,-0.0352 -0.296879,-0.0527 -0.46875,-0.0527 -0.609378,1e-5 -1.078128,0.19923 -1.40625,0.59766 -0.324221,0.39454 -0.48633,0.9629 -0.486328,1.70508 l 0,3.45703 -1.083984,0 0,-6.5625 1.083984,0 0,1.01953 c 0.22656,-0.39843 0.521482,-0.69335 0.884766,-0.88476 0.363278,-0.19531 0.804683,-0.29297 1.324218,-0.29297 0.07421,0 0.156246,0.006 0.246094,0.0176 0.08984,0.008 0.189449,0.0215 0.298828,0.041 l 0.0059,1.10742"
       style=""
       id="path4575" />
    <path
       d="m 20.429687,189.11919 1.195313,0 1.839844,7.39453 1.833984,-7.39453 1.330078,0 1.839844,7.39453 1.833984,-7.39453 1.201172,0 -2.197265,8.74805 -1.488282,0 -1.845703,-7.59375 -1.863281,7.59375 -1.488281,0 -2.191407,-8.74805"
       style=""
       id="path4577" />
    <path
       d="m 35.236328,194.56841 c -0.871097,1e-5 -1.474612,0.0996 -1.810547,0.29883 -0.335939,0.19922 -0.503908,0.53906 -0.503906,1.01953 -2e-6,0.38282 0.124998,0.6875 0.375,0.91406 0.253904,0.22266 0.597653,0.33399 1.03125,0.33399 0.597652,0 1.076168,-0.21094 1.435547,-0.63281 0.363276,-0.42578 0.544917,-0.99024 0.544922,-1.69336 l 0,-0.24024 -1.072266,0 m 2.150391,-0.44531 0,3.74414 -1.078125,0 0,-0.99609 c -0.246099,0.39843 -0.552739,0.69336 -0.919922,0.88476 -0.367192,0.1875 -0.81641,0.28125 -1.347656,0.28125 -0.671878,0 -1.207033,-0.1875 -1.605469,-0.5625 -0.394532,-0.3789 -0.591798,-0.88476 -0.591797,-1.51758 -1e-6,-0.73827 0.246093,-1.29491 0.738281,-1.66992 0.496092,-0.37499 1.234373,-0.56249 2.214844,-0.5625 l 1.511719,0 0,-0.10547 c -5e-6,-0.49609 -0.164068,-0.8789 -0.492188,-1.14843 -0.324223,-0.27344 -0.781254,-0.41015 -1.371094,-0.41016 -0.375002,1e-5 -0.740236,0.0449 -1.095703,0.13476 -0.35547,0.0899 -0.697267,0.22462 -1.02539,0.4043 l 0,-0.99609 c 0.394529,-0.15234 0.777342,-0.26562 1.148437,-0.33985 0.371091,-0.0781 0.732419,-0.11718 1.083985,-0.11718 0.949214,0 1.658198,0.2461 2.126953,0.73828 0.468744,0.49219 0.703118,1.23828 0.703125,2.23828"
       style=""
       id="path4579" />
    <path
       d="m 38.839844,191.30474 1.142578,0 2.050781,5.50781 2.050781,-5.50781 1.142578,0 -2.460937,6.5625 -1.464844,0 -2.460937,-6.5625"
       style=""
       id="path4581" />
    <path
       d="m 52.328125,194.31646 0,0.52734 -4.957031,0 c 0.04687,0.74219 0.269529,1.3086 0.667968,1.69922 0.402341,0.38672 0.960935,0.58008 1.675782,0.58008 0.414058,0 0.814448,-0.0508 1.201172,-0.15234 0.390619,-0.10157 0.777337,-0.25391 1.160156,-0.45704 l 0,1.01954 c -0.386725,0.16406 -0.783209,0.28906 -1.189453,0.375 -0.406255,0.0859 -0.818364,0.1289 -1.236328,0.1289 -1.046878,0 -1.876956,-0.30469 -2.490235,-0.91406 -0.609376,-0.60937 -0.914063,-1.43359 -0.914062,-2.47266 -10e-7,-1.07421 0.289061,-1.92577 0.867187,-2.55468 0.582029,-0.63281 1.365232,-0.94922 2.34961,-0.94922 0.882807,0 1.580072,0.28516 2.091796,0.85547 0.515619,0.56641 0.773431,1.33789 0.773438,2.31445 M 51.25,194.00005 c -0.0078,-0.58984 -0.173834,-1.06054 -0.498047,-1.41211 -0.320317,-0.35155 -0.746098,-0.52733 -1.277344,-0.52734 -0.601565,1e-5 -1.083987,0.16993 -1.447265,0.50976 -0.359377,0.33985 -0.566408,0.81837 -0.621094,1.43555 l 3.84375,-0.006"
       style=""
       id="path4583" />
    <path
       d="m 57.419922,188.75005 0,0.89649 -1.03125,0 c -0.386722,1e-5 -0.656253,0.0781 -0.808594,0.23437 -0.14844,0.15626 -0.222659,0.43751 -0.222656,0.84375 l 0,0.58008 1.77539,0 0,0.83789 -1.77539,0 0,5.72461 -1.083985,0 0,-5.72461 -1.03125,0 0,-0.83789 1.03125,0 0,-0.45703 c -1e-6,-0.73046 0.169921,-1.26171 0.509766,-1.59375 0.339842,-0.33593 0.878904,-0.5039 1.617188,-0.50391 l 1.019531,0"
       style=""
       id="path4585" />
    <path
       d="m 60.859375,192.0606 c -0.578128,1e-5 -1.035159,0.22657 -1.371094,0.67969 -0.335939,0.44922 -0.503908,1.06641 -0.503906,1.85156 -2e-6,0.78516 0.166014,1.4043 0.498047,1.85742 0.335935,0.44922 0.794919,0.67383 1.376953,0.67383 0.574215,0 1.029292,-0.22656 1.365234,-0.67969 0.335932,-0.45312 0.503901,-1.07031 0.503907,-1.85156 -6e-6,-0.77734 -0.167975,-1.39257 -0.503907,-1.8457 -0.335942,-0.45703 -0.791019,-0.68554 -1.365234,-0.68555 m 0,-0.91406 c 0.937495,0 1.673823,0.30469 2.208984,0.91406 0.53515,0.60938 0.802728,1.45313 0.802735,2.53125 -7e-6,1.07422 -0.267585,1.91797 -0.802735,2.53125 -0.535161,0.60937 -1.271489,0.91406 -2.208984,0.91406 -0.941409,0 -1.679689,-0.30469 -2.214844,-0.91406 -0.531251,-0.61328 -0.796875,-1.45703 -0.796875,-2.53125 0,-1.07812 0.265624,-1.92187 0.796875,-2.53125 0.535155,-0.60937 1.273435,-0.91406 2.214844,-0.91406"
       style=""
       id="path4587" />
    <path
       d="m 69.455078,192.31255 c -0.121098,-0.0703 -0.253911,-0.12109 -0.398437,-0.15234 -0.14063,-0.0352 -0.29688,-0.0527 -0.46875,-0.0527 -0.609379,1e-5 -1.078128,0.19923 -1.40625,0.59766 -0.324221,0.39454 -0.486331,0.9629 -0.486329,1.70508 l 0,3.45703 -1.083984,0 0,-6.5625 1.083984,0 0,1.01953 c 0.226561,-0.39843 0.521482,-0.69335 0.884766,-0.88476 0.363278,-0.19531 0.804684,-0.29297 1.324219,-0.29297 0.07421,0 0.156245,0.006 0.246094,0.0176 0.08984,0.008 0.189448,0.0215 0.298828,0.041 l 0.0059,1.10742"
       style=""
       id="path4589" />
    <path
       d="m 75.496094,192.56451 c 0.269524,-0.48437 0.59179,-0.8418 0.966797,-1.07227 0.374992,-0.23046 0.816398,-0.3457 1.324218,-0.3457 0.683585,0 1.210928,0.24024 1.582032,0.7207 0.371083,0.47657 0.55663,1.15625 0.55664,2.03906 l 0,3.96094 -1.083984,0 0,-3.92578 c -1e-5,-0.6289 -0.111338,-1.0957 -0.333985,-1.40039 -0.222665,-0.30468 -0.562508,-0.45703 -1.019531,-0.45703 -0.558601,0 -1.000007,0.18555 -1.324219,0.55664 -0.324225,0.3711 -0.486334,0.87695 -0.486328,1.51758 l 0,3.70898 -1.083984,0 0,-3.92578 c -5e-6,-0.63281 -0.111333,-1.09961 -0.333984,-1.40039 -0.222661,-0.30468 -0.566411,-0.45703 -1.03125,-0.45703 -0.550785,0 -0.988285,0.1875 -1.3125,0.5625 -0.324221,0.3711 -0.486331,0.875 -0.486329,1.51172 l 0,3.70898 -1.083984,0 0,-6.5625 1.083984,0 0,1.01953 c 0.246092,-0.40234 0.541013,-0.69921 0.884766,-0.89062 0.343747,-0.1914 0.751949,-0.28711 1.224609,-0.28711 0.476558,0 0.880855,0.1211 1.212891,0.36328 0.335932,0.24219 0.583978,0.59375 0.744141,1.05469"
       style=""
       id="path4591" />
    <path
       d="m 86.265625,191.4981 0,1.01953 c -0.304693,-0.15624 -0.621098,-0.27343 -0.949219,-0.35156 -0.328129,-0.0781 -0.667972,-0.11718 -1.019531,-0.11719 -0.535159,1e-5 -0.937502,0.082 -1.207031,0.24609 -0.265627,0.16407 -0.398439,0.41017 -0.398438,0.73829 -10e-7,0.25 0.0957,0.44727 0.28711,0.59179 0.191404,0.14063 0.576169,0.2754 1.154296,0.4043 l 0.369141,0.082 c 0.765621,0.16407 1.308589,0.39649 1.628906,0.69727 0.324214,0.29687 0.486323,0.71289 0.486328,1.24804 -5e-6,0.60938 -0.242192,1.0918 -0.726562,1.44727 -0.480473,0.35547 -1.142582,0.5332 -1.986328,0.5332 -0.351565,0 -0.718752,-0.0351 -1.101563,-0.10547 -0.378907,-0.0664 -0.779298,-0.16797 -1.201172,-0.30468 l 0,-1.11329 c 0.398437,0.20704 0.791015,0.36329 1.177735,0.46875 0.386716,0.10157 0.769529,0.15235 1.148437,0.15235 0.507809,0 0.898434,-0.0859 1.171875,-0.25781 0.273433,-0.17578 0.410152,-0.42188 0.410157,-0.73829 -5e-6,-0.29296 -0.09961,-0.51757 -0.298829,-0.67382 -0.195316,-0.15625 -0.626956,-0.30664 -1.294921,-0.45118 l -0.375,-0.0879 c -0.667971,-0.14062 -1.150392,-0.35546 -1.447266,-0.64453 -0.296876,-0.29296 -0.445313,-0.69335 -0.445313,-1.20117 0,-0.61718 0.21875,-1.09374 0.65625,-1.42969 0.437499,-0.33593 1.058592,-0.5039 1.863282,-0.5039 0.398434,0 0.773433,0.0293 1.125,0.0879 0.351558,0.0586 0.675776,0.14649 0.972656,0.26367"
       style=""
       id="path4593" />
  </g>
  <g
     style="font-size:12px;font-style:normal;font-weight:normal;line-height:125%;letter-spacing:0px;word-spacing:0px;fill:#000000;fill-opacity:1;stroke:none;font-family:Sans"
     id="text4626">
    <path
       d="m 469.29727,78.874222 0,1.863281 2.2207,0 0,0.837891 -2.2207,0 0,3.5625 c 0,0.535158 0.0723,0.878907 0.2168,1.03125 0.14843,0.152344 0.44726,0.228516 0.89648,0.228515 l 1.10742,0 0,0.902344 -1.10742,0 c -0.83203,0 -1.40625,-0.154297 -1.72265,-0.462891 -0.31641,-0.312499 -0.47461,-0.878904 -0.47461,-1.699218 l 0,-3.5625 -0.79102,0 0,-0.837891 0.79102,0 0,-1.863281 1.08398,0"
       style=""
       id="path5635" />
    <path
       d="m 472.9418,80.737503 1.07813,0 0,6.5625 -1.07813,0 0,-6.5625 m 0,-2.554687 1.07813,0 0,1.365234 -1.07813,0 0,-1.365234"
       style=""
       id="path5637" />
    <path
       d="m 481.3793,81.997269 c 0.26953,-0.48437 0.59179,-0.841791 0.9668,-1.072266 0.37499,-0.230462 0.8164,-0.345696 1.32422,-0.345703 0.68358,7e-6 1.21093,0.240241 1.58203,0.720703 0.37108,0.476568 0.55663,1.156255 0.55664,2.039063 l 0,3.960937 -1.08398,0 0,-3.925781 c -10e-6,-0.628902 -0.11134,-1.095698 -0.33399,-1.400391 -0.22266,-0.304682 -0.56251,-0.457025 -1.01953,-0.457031 -0.5586,6e-6 -1.00001,0.185552 -1.32422,0.556641 -0.32422,0.371098 -0.48633,0.876957 -0.48633,1.517578 l 0,3.708984 -1.08398,0 0,-3.925781 c -1e-5,-0.632808 -0.11133,-1.099605 -0.33399,-1.400391 -0.22266,-0.304682 -0.56641,-0.457025 -1.03125,-0.457031 -0.55078,6e-6 -0.98828,0.187506 -1.3125,0.5625 -0.32422,0.371099 -0.48633,0.875004 -0.48632,1.511719 l 0,3.708984 -1.08399,0 0,-6.5625 1.08399,0 0,1.019531 c 0.24609,-0.402338 0.54101,-0.699212 0.88476,-0.890625 0.34375,-0.191399 0.75195,-0.287102 1.22461,-0.287109 0.47656,7e-6 0.88086,0.1211 1.21289,0.363281 0.33593,0.242194 0.58398,0.593756 0.74414,1.054688"
       style=""
       id="path5639" />
    <path
       d="m 493.57852,83.749222 0,0.527344 -4.95703,0 c 0.0469,0.742189 0.26953,1.308595 0.66797,1.699218 0.40234,0.38672 0.96093,0.580079 1.67578,0.580078 0.41406,10e-7 0.81445,-0.05078 1.20117,-0.152343 0.39062,-0.101562 0.77734,-0.253905 1.16016,-0.457032 l 0,1.019532 c -0.38673,0.164062 -0.78321,0.289062 -1.18945,0.375 -0.40626,0.08594 -0.81837,0.128906 -1.23633,0.128906 -1.04688,0 -1.87696,-0.304687 -2.49024,-0.914063 -0.60937,-0.609373 -0.91406,-1.433591 -0.91406,-2.472656 0,-1.074214 0.28906,-1.925776 0.86719,-2.554687 0.58203,-0.632806 1.36523,-0.949212 2.34961,-0.949219 0.88281,7e-6 1.58007,0.285163 2.09179,0.855469 0.51562,0.566411 0.77343,1.337895 0.77344,2.314453 m -1.07812,-0.316406 c -0.008,-0.58984 -0.17384,-1.060542 -0.49805,-1.41211 -0.32032,-0.351557 -0.7461,-0.527338 -1.27734,-0.527344 -0.60157,6e-6 -1.08399,0.169928 -1.44727,0.509766 -0.35938,0.339849 -0.56641,0.818364 -0.62109,1.435547 l 3.84375,-0.0059"
       style=""
       id="path5641" />
  </g>
  <g
     id="g5626">
    <path
       style="font-size:medium;font-style:normal;font-variant:normal;font-weight:normal;font-stretch:normal;text-indent:0;text-align:start;text-decoration:none;line-height:normal;letter-spacing:normal;word-spacing:normal;text-transform:none;direction:ltr;block-progression:tb;writing-mode:lr-tb;text-anchor:start;baseline-shift:baseline;color:#000000;fill:#000000;fill-opacity:1;stroke:none;stroke-width:0.99000001;marker:none;visibility:visible;display:inline;overflow:visible;enable-background:accumulate;font-family:Sans;-inkscape-font-specification:Sans"
       d="m 499.5,84.09375 0,1 17.09375,0 0,-1 -17.09375,0 z"
       id="path4630"
       inkscape:connector-curvature="0" />
    <path
       style="fill-rule:evenodd;stroke:#000000;stroke-width:0.396pt"
       d="m 518.88492,84.6 -3.4254,1.98 0,-3.96 3.4254,1.98 z"
       id="path5632"
       inkscape:connector-curvature="0" />
  </g>
</svg>
